<?xml version="1.0" encoding="UTF-8"?>
<svg id="Capa_1" data-name="Capa 1" xmlns="http://www.w3.org/2000/svg" viewBox="0 0 1861.99 516.11">
  <defs>
    <style>
      .cls-1 {
        fill: #8f8989;
      }
    </style>
  </defs>
  <g>
    <path class="cls-1" d="M599.56,0h130.36c102.46,0,171.52,65.87,171.52,160.09s-69.07,160.09-171.52,160.09h-130.36V0ZM728.09,290.9c85.07,0,139.96-53.97,139.96-130.81s-54.89-130.81-139.96-130.81h-94.68v261.63h94.68Z"/>
    <path class="cls-1" d="M1173.59,234.64h-178.38l-38.42,85.53h-35.22L1067.94,0h33.39l146.37,320.18h-35.68l-38.42-85.53ZM1161.24,207.2l-76.84-171.98-76.84,171.98h153.69Z"/>
    <path class="cls-1" d="M1550.49,0l-141.79,320.18h-33.39L1233.52,0h36.59l122.58,278.1L1516.19,0h34.31Z"/>
    <path class="cls-1" d="M1787.89,234.64h-178.38l-38.42,85.53h-35.22L1682.23,0h33.39l146.37,320.18h-35.68l-38.42-85.53ZM1775.54,207.2l-76.84-171.98-76.84,171.98h153.69Z"/>
  </g>
  <g>
    <path class="cls-1" d="M599.1,381.57h54.31c42.69,0,71.46,27.44,71.46,66.7s-28.78,66.7-71.46,66.7h-54.31v-133.4ZM652.65,502.77c35.44,0,58.31-22.49,58.31-54.5s-22.87-54.5-58.31-54.5h-39.45v109.01h39.45Z"/>
    <path class="cls-1" d="M959.49,502.77v12.2h-94.33v-133.4h91.47v12.2h-77.37v47.45h68.98v12.01h-68.98v49.55h80.23Z"/>
    <path class="cls-1" d="M1088.52,498.77l5.52-10.86c9.53,9.34,26.49,16.2,44.02,16.2,24.96,0,35.83-10.48,35.83-23.63,0-36.59-82.14-14.1-82.14-63.46,0-19.63,15.25-36.59,49.17-36.59,15.05,0,30.68,4.38,41.35,11.82l-4.76,11.24c-11.43-7.43-24.77-11.05-36.59-11.05-24.39,0-35.26,10.86-35.26,24.2,0,36.59,82.14,14.48,82.14,63.08,0,19.63-15.63,36.4-49.74,36.4-20.01,0-39.64-7.05-49.55-17.34Z"/>
    <path class="cls-1" d="M1327.13,381.57h14.1v133.4h-14.1v-133.4Z"/>
    <path class="cls-1" d="M1587.27,448.27h13.53v50.88c-12.58,11.24-30.49,16.96-48.97,16.96-40.59,0-70.32-28.78-70.32-67.84s29.73-67.84,70.51-67.84c20.2,0,37.73,6.48,49.55,19.25l-8.77,8.96c-11.24-11.05-24.58-15.63-40.21-15.63-32.97,0-57.17,23.44-57.17,55.27s24.2,55.26,56.98,55.26c12.77,0,24.58-2.86,34.88-10.29v-44.97Z"/>
    <path class="cls-1" d="M1860.76,381.57v133.4h-11.62l-85.75-108.24v108.24h-14.1v-133.4h11.63l85.94,108.24v-108.24h13.91Z"/>
  </g>
  <path class="cls-1" d="M452.76,124.86c-6.68-11.31-14.42-21.71-22.71-31.62-5.12-6.12-10.49-12-16.21-17.56-11.04-10.76-23.31-20.35-36.52-29.03-6.59-4.33-13.21-8.62-20.33-12.42l-15.1,18.83-29.19,36.39-15.49,19.31-200.61,250.07V.87H0v514.09h213.7c53,0,100.68-10.91,141.68-32.37,41.49-21.71,74.27-52.54,97.42-91.61,22.96-38.88,34.62-83.66,34.62-133.07s-11.67-94.19-34.65-133.05ZM161.46,425.01l206.84-255.49c.3.51.78.84,1.08,1.35,14.65,24.88,22.09,54.17,22.09,87.03s-7.44,62.17-22.06,87.05c-14.79,25.07-35.09,44.21-62.06,58.45-27.08,14.33-59.48,21.6-96.31,21.6h-49.58Z"/>
</svg>